<?xml version="1.0" encoding="UTF-8"?>
<svg width="36px" height="35px" viewBox="0 0 36 35" version="1.1" xmlns="http://www.w3.org/2000/svg" xmlns:xlink="http://www.w3.org/1999/xlink">
    <!-- Generator: sketchtool 49.2 (51160) - http://www.bohemiancoding.com/sketch -->
    <title>F6D9966A-AE77-4AB3-9732-F429E628F8A8</title>
    <desc>Created with sketchtool.</desc>
    <defs>
        <polygon id="path-1" points="0.2655 0.0917067504 34.7885769 0.0917067504 34.7885769 34.33281 0.2655 34.33281"></polygon>
    </defs>
    <g id="Symbols" stroke="none" stroke-width="1" fill="none" fill-rule="evenodd">
        <g id="Footer2" transform="translate(-570.000000, -471.000000)">
            <g id="Footer">
                <g id="Group-18" transform="translate(465.000000, 471.000000)">
                    <g id="Group-3" transform="translate(105.333333, 0.289922)">
                        <mask id="mask-2" fill="white">
                            <use xlink:href="#path-1"></use>
                        </mask>
                        <g id="Clip-2"></g>
                        <path d="M22.2847308,10.5670286 L19.7766538,10.5670286 C19.3655,10.5670286 18.7885769,10.7688292 18.7885769,11.6389752 L18.7885769,13.9545325 L22.2766538,13.9545325 L21.8655,17.8837319 L18.7885769,17.8837319 L18.7885769,29.0724132 L14.1193462,29.0724132 L14.1193462,17.8837319 L11.9001154,17.8837319 L11.9001154,13.9465215 L14.1193462,13.9465215 L14.1193462,11.4020788 C14.1193462,9.58282135 14.9924231,6.73281664 18.8308846,6.73281664 L22.2847308,6.74807567 L22.2847308,10.5670286 Z M17.5270385,0.0917067504 C7.99626923,0.0917067504 0.2655,7.7555529 0.2655,17.2123347 C0.2655,26.6649203 7.99626923,34.3329626 17.5270385,34.3329626 C27.0616538,34.3329626 34.7885769,26.6649203 34.7885769,17.2123347 C34.7885769,7.7555529 27.0616538,0.0917067504 17.5270385,0.0917067504 Z" id="Fill-1" fill="#8C8C8C" mask="url(#mask-2)"></path>
                    </g>
                </g>
            </g>
        </g>
    </g>
</svg>