<?xml version="1.0" encoding="UTF-8"?>
<svg width="36px" height="35px" viewBox="0 0 36 35" version="1.1" xmlns="http://www.w3.org/2000/svg" xmlns:xlink="http://www.w3.org/1999/xlink">
    <!-- Generator: sketchtool 49.2 (51160) - http://www.bohemiancoding.com/sketch -->
    <title>D4D250C4-E45C-434A-AA9E-9659C1B0C269</title>
    <desc>Created with sketchtool.</desc>
    <defs></defs>
    <g id="Symbols" stroke="none" stroke-width="1" fill="none" fill-rule="evenodd">
        <g id="Footer2" transform="translate(-675.000000, -471.000000)" fill="#8C8C8C">
            <g id="Footer">
                <g id="Group-18" transform="translate(465.000000, 471.000000)">
                    <g id="Group-8" transform="translate(210.666667, 0.000000)">
                        <g id="Group-16">
                            <path d="M23.0573462,13.2106333 C22.3588846,13.2106333 21.7915769,12.6370222 21.7915769,11.9311889 C21.7915769,11.2261333 22.3588846,10.6509667 23.0573462,10.6509667 C23.7542692,10.6509667 24.3235,11.2261333 24.3235,11.9311889 C24.3235,12.6370222 23.7542692,13.2106333 23.0573462,13.2106333 M17.5358077,22.9087444 C14.5877308,22.9087444 12.1865769,20.4813 12.1865769,17.5004667 C12.1865769,14.5192444 14.5877308,12.0925778 17.5358077,12.0925778 C20.4861923,12.0925778 22.8842692,14.5192444 22.8842692,17.5004667 C22.8842692,20.4813 20.4842692,22.9087444 17.5358077,22.9087444 M22.6811923,9.28752222 L12.3919615,9.28752222 C10.7485,9.28752222 9.41311538,10.6373556 9.41311538,12.2990778 L9.41311538,22.7014667 C9.41311538,24.3631889 10.7485,25.7149667 12.3919615,25.7149667 L22.6811923,25.7149667 C24.3235,25.7149667 25.6604231,24.3631889 25.6604231,22.7014667 L25.6604231,12.2990778 C25.6604231,10.6373556 24.3235,9.28752222 22.6811923,9.28752222" id="Fill-7"></path>
                            <path d="M17.5356538,14.3788167 C15.8341154,14.3788167 14.4483462,15.7784278 14.4483462,17.5004278 C14.4483462,19.2228167 15.8341154,20.6239833 17.5356538,20.6239833 C19.2391154,20.6239833 20.6252692,19.2228167 20.6252692,17.5004278 C20.6252692,15.7803722 19.2391154,14.3788167 17.5356538,14.3788167" id="Fill-9"></path>
                            <path d="M27.9195,22.7015833 C27.9195,25.6244722 25.5702692,27.9994167 22.6814231,27.9994167 L12.3918077,27.9994167 C9.50296154,27.9994167 7.15219231,25.6244722 7.15219231,22.7015833 L7.15219231,12.2991944 C7.15219231,9.37863889 9.50296154,7.00136111 12.3918077,7.00136111 L22.6814231,7.00136111 C25.5702692,7.00136111 27.9195,9.37863889 27.9195,12.2991944 L27.9195,22.7015833 Z M17.5356538,0.000194444444 C8.00257692,0.000194444444 0.2745,7.81413889 0.2745,17.4531389 C0.2745,27.09175 8.00257692,34.9060833 17.5356538,34.9060833 C27.0687308,34.9060833 34.7971923,27.09175 34.7971923,17.4531389 C34.7971923,7.81413889 27.0687308,0.000194444444 17.5356538,0.000194444444 Z" id="Fill-11"></path>
                        </g>
                    </g>
                </g>
            </g>
        </g>
    </g>
</svg>