<?xml version="1.0" encoding="UTF-8"?>
<svg width="35px" height="35px" viewBox="0 0 35 35" version="1.1" xmlns="http://www.w3.org/2000/svg" xmlns:xlink="http://www.w3.org/1999/xlink">
    <!-- Generator: sketchtool 49.2 (51160) - http://www.bohemiancoding.com/sketch -->
    <title>54A8F5F4-6460-4428-8662-E715C8A2CFD5</title>
    <desc>Created with sketchtool.</desc>
    <defs>
        <polygon id="path-1" points="0.307576923 0.0915923077 34.8268077 0.0915923077 34.8268077 34.33281 0.307576923 34.33281"></polygon>
    </defs>
    <g id="Symbols" stroke="none" stroke-width="1" fill="none" fill-rule="evenodd">
        <g id="Footer2" transform="translate(-781.000000, -471.000000)">
            <g id="Footer">
                <g id="Group-18" transform="translate(465.000000, 471.000000)">
                    <g id="Group-14" transform="translate(316.000000, 0.000000)">
                        <g id="Group-15" transform="translate(0.000000, 0.289922)">
                            <mask id="mask-2" fill="white">
                                <use xlink:href="#path-1"></use>
                            </mask>
                            <g id="Clip-14"></g>
                            <path d="M18.9614231,23.0182799 C17.6541154,22.9149 17.1075769,22.2744024 16.0848846,21.6598451 C15.5195,24.5861449 14.8348846,27.3899911 12.7964231,28.8586724 C12.1691154,24.4335546 13.7191154,21.1109016 14.4421923,17.5860664 C13.2118077,15.5337273 14.5887308,11.4061606 17.1806538,12.4208859 C20.3691154,13.6721261 14.4191154,20.0465845 18.4114231,20.8438686 C22.5806538,21.6751041 24.2845,13.6683113 21.6998846,11.0628325 C17.9614231,7.30529717 10.8229615,10.9785264 11.6998846,16.3615295 C11.9152692,17.6776206 13.2883462,18.07817 12.2502692,19.8939942 C9.85757692,19.3675578 9.14603846,17.498327 9.23488462,15.0034761 C9.38488462,10.9216865 12.9345,8.06443375 16.4960385,7.66769906 C21.0002692,7.16796593 25.2229615,9.30804443 25.8079615,13.5080915 C26.4652692,18.2498341 23.7771923,23.3844965 18.9614231,23.0182799 M17.5652692,0.0915923077 C8.0345,0.0915923077 0.307576923,7.75543846 0.307576923,17.2122203 C0.307576923,26.6651873 8.0345,34.3328482 17.5652692,34.3328482 C27.0998846,34.3328482 34.8268077,26.6651873 34.8268077,17.2122203 C34.8268077,7.75543846 27.0998846,0.0915923077 17.5652692,0.0915923077" id="Fill-13" fill="#8C8C8C" mask="url(#mask-2)"></path>
                        </g>
                    </g>
                </g>
            </g>
        </g>
    </g>
</svg>