<?xml version="1.0" encoding="UTF-8"?>
<svg width="35px" height="34px" viewBox="0 0 35 34" version="1.1" xmlns="http://www.w3.org/2000/svg" xmlns:xlink="http://www.w3.org/1999/xlink">
    <!-- Generator: sketchtool 49.2 (51160) - http://www.bohemiancoding.com/sketch -->
    <title>4EC2422C-C5FD-4BCA-98B9-41936C0B512F</title>
    <desc>Created with sketchtool.</desc>
    <defs></defs>
    <g id="Symbols" stroke="none" stroke-width="1" fill="none" fill-rule="evenodd">
        <g id="Footer2" transform="translate(-465.000000, -471.000000)" fill="#8C8C8C">
            <g id="Footer">
                <g id="Group-18" transform="translate(465.000000, 471.000000)">
                    <g id="Group-17">
                        <path d="M26.1291221,14.3219697 C26.1373106,14.4962121 26.1447193,14.6704545 26.1447193,14.844697 C26.1447193,20.2159091 21.9334893,26.4090909 14.240586,26.4090909 C11.8772282,26.4090909 9.68192959,25.7348485 7.82976827,24.5833333 C8.15730838,24.6212121 8.4891377,24.6359848 8.82798574,24.6359848 C10.7893271,24.6359848 12.5907977,23.9886364 14.021836,22.8977273 C12.1934603,22.8674242 10.6489528,21.6931818 10.1151404,20.0757576 C10.3724933,20.125 10.6337455,20.1515152 10.9024064,20.1515152 C11.2849265,20.1515152 11.6549688,20.0984848 12.0023953,20.0075758 C10.0913547,19.6325758 8.64900847,17.9924242 8.64900847,16.0227273 L8.64900847,15.969697 C9.21401515,16.2765152 9.85778743,16.4583333 10.543672,16.4810606 C9.42067736,15.7537879 8.68410205,14.5075758 8.68410205,13.0984848 C8.68410205,12.3522727 8.89037433,11.655303 9.24910873,11.0530303 C11.3118316,13.5151515 14.3961676,15.1325758 17.8704323,15.3030303 C17.800635,15.0037879 17.7612522,14.692803 17.7612522,14.375 C17.7612522,12.1325758 19.6332999,10.3106061 21.9455771,10.3106061 C23.1500668,10.3106061 24.2344586,10.8030303 24.9987188,11.594697 C25.9497549,11.4128788 26.8469808,11.0757576 27.6537433,10.6098485 C27.3418004,11.5568182 26.6789216,12.3522727 25.8171791,12.8560606 C26.6594251,12.7575758 27.4669675,12.5416667 28.2191399,12.2159091 C27.6580325,13.030303 26.9483623,13.7458333 26.1291221,14.3219697 M17.5,0 C7.83366756,0 0,7.60984848 0,17 C0,26.3863636 7.83366756,34 17.5,34 C27.1624332,34 35,26.3863636 35,17 C35,7.60984848 27.1624332,0 17.5,0" id="Fill-4"></path>
                    </g>
                </g>
            </g>
        </g>
    </g>
</svg>